<svg width="257" height="256" viewBox="0 0 257 256" fill="none" xmlns="http://www.w3.org/2000/svg">
<g clip-path="url(#clip0_101_4)">
<path fill-rule="evenodd" clip-rule="evenodd" d="M142.229 41.2901L142.162 79.6658L142.094 118.042L138.937 109.133C138.936 109.13 138.932 109.118 138.931 109.115L134.851 194.55C138.862 205.878 141.011 211.925 141.035 211.949C141.067 211.981 143.353 212.119 146.115 212.256C154.485 212.671 164.856 213.561 172.724 214.539C174.546 214.765 176.114 214.881 176.208 214.796C176.303 214.712 176.354 175.638 176.322 127.966L176.265 41.2901H142.229ZM80.6683 41.1759V127.94C80.6683 175.66 80.715 214.751 80.7721 214.808C80.8293 214.865 83.7846 214.586 87.3394 214.188C90.8942 213.79 95.8073 213.295 98.2571 213.088C102.014 212.771 113.233 212.05 114.532 212.042C114.91 212.039 114.934 210.09 114.989 175.292L115.047 138.545L117.761 146.225C118.18 147.412 118.312 147.782 118.721 148.939L122.799 63.5253C121.935 61.0819 122.388 62.3646 121.398 59.5643C118.065 50.1417 115.237 42.1496 115.113 41.8041L114.888 41.1759H80.6683Z" fill="#B1060F" stroke="black" stroke-width="0.310123"/>
<path fill-rule="evenodd" clip-rule="evenodd" d="M80.6683 41.1759V89.879L114.977 180.889C114.981 178.803 114.985 177.676 114.989 175.292L115.047 138.545L117.761 146.225C132.87 188.978 140.988 211.902 141.035 211.949C141.067 211.981 143.353 212.119 146.115 212.256C154.485 212.671 164.856 213.561 172.724 214.539C174.546 214.765 176.114 214.881 176.208 214.796C176.273 214.738 176.315 195.58 176.327 168.552L142.178 70.3753L142.162 79.6658L142.094 118.042L138.937 109.133C135.852 100.428 133.792 94.6068 121.398 59.5643C118.065 50.1417 115.237 42.1496 115.113 41.8041L114.888 41.1759H80.6683Z" fill="url(#paint0_radial_101_4)"/>
<path fill-rule="evenodd" clip-rule="evenodd" d="M80.669 41.1759L115.047 138.589V138.545L117.761 146.225C132.87 188.978 140.988 211.902 141.035 211.949C141.067 211.981 143.353 212.119 146.115 212.256C154.485 212.671 164.856 213.561 172.724 214.539C174.537 214.764 176.096 214.88 176.205 214.797L142.094 118.024V118.042L138.937 109.133C135.852 100.428 133.792 94.6068 121.398 59.5642C118.065 50.1416 115.237 42.1495 115.113 41.804L114.888 41.1759L80.669 41.1759Z" fill="#E50914"/>
<path fill-rule="evenodd" clip-rule="evenodd" d="M142.229 41.2901L142.162 79.6658L142.094 118.042L138.937 109.133C138.936 109.13 138.932 109.118 138.931 109.115L134.851 194.55C138.862 205.878 141.011 211.925 141.035 211.949C141.067 211.981 143.353 212.119 146.115 212.256C154.485 212.671 164.856 213.561 172.724 214.539C174.546 214.765 176.114 214.881 176.208 214.796C176.303 214.712 176.354 175.638 176.322 127.966L176.265 41.2901H142.229ZM80.6683 41.1759V127.94C80.6683 175.66 80.715 214.751 80.7721 214.808C80.8293 214.865 83.7846 214.586 87.3394 214.188C90.8942 213.79 95.8073 213.295 98.2571 213.088C102.014 212.771 113.233 212.05 114.532 212.042C114.91 212.039 114.934 210.09 114.989 175.292L115.047 138.545L117.761 146.225C118.18 147.412 118.312 147.782 118.721 148.939L122.799 63.5253C121.935 61.0819 122.388 62.3646 121.398 59.5643C118.065 50.1417 115.237 42.1496 115.113 41.8041L114.888 41.1759H80.6683Z" fill="#B1060F" stroke="black" stroke-width="0.310123"/>
<path fill-rule="evenodd" clip-rule="evenodd" d="M80.6683 41.1759V89.879L114.977 180.889C114.981 178.803 114.985 177.676 114.989 175.292L115.047 138.545L117.761 146.225C132.87 188.978 140.988 211.902 141.035 211.949C141.067 211.981 143.353 212.119 146.115 212.256C154.485 212.671 164.856 213.561 172.724 214.539C174.546 214.765 176.114 214.881 176.208 214.796C176.273 214.738 176.315 195.58 176.327 168.552L142.178 70.3753L142.162 79.6658L142.094 118.042L138.937 109.133C135.852 100.428 133.792 94.6068 121.398 59.5643C118.065 50.1417 115.237 42.1496 115.113 41.8041L114.888 41.1759H80.6683Z" fill="url(#paint1_radial_101_4)"/>
<path fill-rule="evenodd" clip-rule="evenodd" d="M80.669 41.1759L115.047 138.589V138.545L117.761 146.225C132.87 188.978 140.988 211.902 141.035 211.949C141.067 211.981 143.353 212.119 146.115 212.256C154.485 212.671 164.856 213.561 172.724 214.539C174.537 214.764 176.096 214.88 176.205 214.797L142.094 118.024V118.042L138.937 109.133C135.852 100.428 133.792 94.6068 121.398 59.5642C118.065 50.1416 115.237 42.1495 115.113 41.804L114.888 41.1759L80.669 41.1759Z" fill="#E50914"/>
<g filter="url(#filter0_d_101_4)">
<path fill-rule="evenodd" clip-rule="evenodd" d="M83.882 61.2545C96.5285 52.878 111.694 48 128 48C172.183 48 208 83.817 208 128C208 144.306 203.122 159.471 194.745 172.118L83.882 61.2545ZM61.2545 83.882C52.878 96.5285 48 111.694 48 128C48 172.183 83.817 208 128 208C144.306 208 159.471 203.122 172.118 194.745L61.2545 83.882ZM128 16C66.144 16 16 66.144 16 128C16 189.856 66.144 240 128 240C189.856 240 240 189.856 240 128C240 66.144 189.856 16 128 16Z" fill="#E50914"/>
</g>
</g>
<defs>
<filter id="filter0_d_101_4" x="12" y="16" width="232" height="232" filterUnits="userSpaceOnUse" color-interpolation-filters="sRGB">
<feFlood flood-opacity="0" result="BackgroundImageFix"/>
<feColorMatrix in="SourceAlpha" type="matrix" values="0 0 0 0 0 0 0 0 0 0 0 0 0 0 0 0 0 0 127 0" result="hardAlpha"/>
<feOffset dy="4"/>
<feGaussianBlur stdDeviation="2"/>
<feComposite in2="hardAlpha" operator="out"/>
<feColorMatrix type="matrix" values="0 0 0 0 0 0 0 0 0 0 0 0 0 0 0 0 0 0 0.35 0"/>
<feBlend mode="normal" in2="BackgroundImageFix" result="effect1_dropShadow_101_4"/>
<feBlend mode="normal" in="SourceGraphic" in2="effect1_dropShadow_101_4" result="shape"/>
</filter>
<radialGradient id="paint0_radial_101_4" cx="0" cy="0" r="1" gradientUnits="userSpaceOnUse" gradientTransform="translate(126.909 126.99) rotate(-19.0977) scale(21.6815 794.174)">
<stop/>
<stop offset="1" stop-opacity="0"/>
</radialGradient>
<radialGradient id="paint1_radial_101_4" cx="0" cy="0" r="1" gradientUnits="userSpaceOnUse" gradientTransform="translate(126.909 126.99) rotate(-19.0977) scale(21.6815 794.174)">
<stop/>
<stop offset="1" stop-opacity="0"/>
</radialGradient>
<clipPath id="clip0_101_4">
<rect width="256" height="256" fill="white" transform="translate(0.5)"/>
</clipPath>
</defs>
</svg>
